<?xml version="1.0" encoding="utf-8"?>
<!-- www.vectorico.com -->
<svg version="1.1" id="Dribbble" xmlns="http://www.w3.org/2000/svg" xmlns:xlink="http://www.w3.org/1999/xlink" x="0px" y="0px"
	 viewBox="0 0 64 64" style="enable-background:new 0 0 64 64;" xml:space="preserve">
<style type="text/css">
	.st0{fill:#EA4C89;}
	.st1{fill:#C32361;}
	.st2{fill-rule:evenodd;clip-rule:evenodd;fill:#C32361;}
</style>
<title>Dribbble Ball Icon</title>
<circle class="st0" cx="32" cy="32" r="32"/>
<path class="st1" d="M32,63.8v-0.2c-8.7,0-16.7-3.6-22.4-9.3C3.9,48.7,0.3,40.7,0.3,32l0,0c0-8.7,3.6-16.7,9.3-22.4
	C15.4,3.9,23.3,0.3,32,0.3c8.7,0,16.7,3.6,22.4,9.3c5.7,5.7,9.3,13.7,9.3,22.4c0,8.7-3.6,16.7-9.3,22.4c-5.7,5.7-13.7,9.3-22.4,9.3
	V63.8V64c17.6,0,32-14.4,32-32C64,14.4,49.6,0,32,0C14.4,0,0,14.4,0,32l0,0c0,17.6,14.4,32,32,32V63.8L32,63.8L32,63.8z M58.9,36.4
	l0-0.2c-0.7-0.2-5.3-1.6-11.3-1.6c-1.8,0-3.7,0.1-5.7,0.4l-0.2,0l0.1,0.2c3.6,9.8,5,17.7,5.3,19.4l0,0.2l0.2-0.1
	C53.4,50.6,57.8,44,59,36.4l0-0.1l-0.1,0L58.9,36.4l-0.2,0c-1.2,7.5-5.5,14-11.6,18.1l0.1,0.1l0.2,0c-0.3-1.7-1.7-9.6-5.3-19.4
	l-0.2,0.1l0,0.2c2-0.3,3.9-0.4,5.6-0.4c5.9,0,10.5,1.4,11.2,1.6L58.9,36.4l-0.2,0L58.9,36.4L58.9,36.4L58.9,36.4z M42.6,57.1l0.2,0
	c-0.4-2.4-2-10.7-5.8-20.7l-0.1-0.1l-0.1,0c-0.1,0-0.1,0-0.2,0.1c-15.4,5.4-20.9,16-21.4,17.1l-0.1,0.1l0.1,0.1
	c4.6,3.6,10.5,5.8,16.8,5.8c3.8,0,7.4-0.8,10.7-2.2l0.1,0l0-0.1L42.6,57.1l-0.1-0.1c-3.2,1.4-6.8,2.1-10.6,2.1
	c-6.3,0-12-2.1-16.6-5.7l-0.1,0.1l0.1,0.1c0.5-1,6-11.6,21.2-16.9c0.1,0,0.1,0,0.2-0.1l-0.1-0.2l-0.1,0.1c3.8,9.9,5.4,18.2,5.8,20.6
	L42.6,57.1l-0.1-0.1L42.6,57.1L42.6,57.1L42.6,57.1z M11.8,50.2l0.1,0.1c0.6-1,8.1-13.4,22-17.9c0.4-0.1,0.7-0.2,1.1-0.3l0.2-0.1
	l-0.1-0.2c-0.7-1.5-1.4-3.1-2.2-4.6l-0.1-0.1l-0.1,0c-12,3.6-23.7,3.9-27,3.9c-0.4,0-0.7,0-0.9,0l-0.2,0l0,0.2c0,0.3,0,0.6,0,0.8
	c0,7,2.7,13.4,7,18.3l0.1,0.2l0.1-0.2L11.8,50.2l0.1-0.1C7.6,45.3,5,39,5,32c0-0.3,0-0.6,0-0.8l-0.2,0l0,0.2c0.1,0,0.4,0,0.9,0
	c3.4,0,15.1-0.3,27.1-3.9l0-0.2l-0.1,0.1c0.8,1.5,1.5,3.1,2.2,4.6L35,32l0-0.2c-0.4,0.1-0.7,0.2-1.1,0.3
	c-14.1,4.6-21.6,16.9-22.2,18L11.8,50.2l0.1-0.1L11.8,50.2L11.8,50.2L11.8,50.2z M5.4,26.5l0,0.2c0.1,0,0.3,0,0.5,0
	c2.5,0,13-0.2,24.7-3.3l0.2-0.1l-0.1-0.2c-4.5-8-9.4-14.8-10.1-15.7l-0.1-0.1l-0.1,0.1C12.7,10.9,7,17.9,5.2,26.4l0,0.2l0.2,0
	L5.4,26.5l0.2,0c1.8-8.4,7.4-15.4,15-18.9l-0.1-0.1l-0.1,0.1c0.7,1,5.6,7.7,10.1,15.7l0.1-0.1l0-0.2c-11.7,3.1-22.1,3.3-24.6,3.3
	c-0.2,0-0.4,0-0.5,0L5.4,26.5l0.2,0L5.4,26.5L5.4,26.5L5.4,26.5z M25.6,5.6l-0.1,0.1c0.7,1,5.7,7.7,10.1,15.9l0.1,0.1l0.1,0
	c9.7-3.6,13.8-9.2,14.3-9.9l0.1-0.1l-0.1-0.1C45.3,7.3,39,4.7,32,4.7c-2.2,0-4.4,0.3-6.4,0.8l-0.2,0.1l0.1,0.2L25.6,5.6l0,0.2
	C27.7,5.3,29.8,5,32,5c6.9,0,13.1,2.6,17.9,6.8l0.1-0.1l-0.1-0.1c-0.5,0.7-4.5,6.2-14.2,9.8l0.1,0.2l0.1-0.1
	c-4.5-8.2-9.4-14.9-10.2-15.9L25.6,5.6l0,0.2L25.6,5.6L25.6,5.6L25.6,5.6z M53.1,14.8l-0.1-0.1c-0.6,0.8-5.1,6.6-15.1,10.7l-0.2,0.1
	l0.1,0.2c0.6,1.3,1.2,2.6,1.8,3.9c0.2,0.5,0.4,0.9,0.6,1.4l0,0.1l0.1,0c2.1-0.3,4.2-0.4,6.2-0.4c6.5,0,12,1.1,12.6,1.2l0.2,0l0-0.2
	c-0.1-6.5-2.4-12.4-6.2-17L53,14.6l-0.1,0.2L53.1,14.8l-0.1,0.1c3.8,4.6,6,10.5,6.1,16.8l0.2,0l0-0.2c-0.7-0.1-6.1-1.2-12.7-1.3
	c-2,0-4.2,0.1-6.3,0.4l0,0.2l0.1-0.1c-0.2-0.5-0.4-0.9-0.6-1.4c-0.6-1.3-1.2-2.6-1.8-3.9l-0.1,0.1l0.1,0.1
	c10.1-4.1,14.7-10,15.3-10.8L53.1,14.8l-0.1,0.1L53.1,14.8L53.1,14.8L53.1,14.8z"/>
<path class="st2" d="M32,63.8C14.4,63.8,0.2,49.6,0.2,32C0.2,14.4,14.4,0.2,32,0.2c17.6,0,31.8,14.3,31.8,31.8
	C63.8,49.6,49.6,63.8,32,63.8L32,63.8z M58.9,36.4c-0.9-0.3-8.4-2.5-16.9-1.2c3.6,9.8,5,17.7,5.3,19.4
	C53.3,50.5,57.6,43.9,58.9,36.4L58.9,36.4z M42.6,57.1c-0.4-2.4-2-10.7-5.8-20.6c-0.1,0-0.1,0-0.2,0.1c-15.3,5.3-20.8,16-21.3,17
	c4.6,3.6,10.4,5.7,16.7,5.7C35.8,59.2,39.4,58.5,42.6,57.1L42.6,57.1z M11.8,50.2c0.6-1.1,8.1-13.4,22.1-17.9
	c0.4-0.1,0.7-0.2,1.1-0.3c-0.7-1.5-1.4-3.1-2.2-4.6C19.2,31.4,6,31.2,4.8,31.2c0,0.3,0,0.6,0,0.8C4.8,39,7.5,45.4,11.8,50.2
	L11.8,50.2z M5.4,26.5c1.2,0,12.4,0.1,25.1-3.3c-4.5-8-9.4-14.7-10.1-15.7C12.8,11,7.1,18,5.4,26.5L5.4,26.5z M25.6,5.6
	c0.8,1,5.7,7.7,10.1,15.9c9.7-3.6,13.8-9.1,14.3-9.8c-4.8-4.3-11.1-6.9-18-6.9C29.8,4.8,27.7,5.1,25.6,5.6L25.6,5.6z M53.1,14.8
	c-0.6,0.8-5.1,6.6-15.2,10.7c0.6,1.3,1.2,2.6,1.8,3.9c0.2,0.5,0.4,0.9,0.6,1.4c9-1.1,18,0.7,18.9,0.9C59.1,25.4,56.8,19.5,53.1,14.8
	L53.1,14.8z"/>
</svg>
